<mxfile host="app.diagrams.net" modified="2021-11-11T14:18:31.583Z" agent="5.0 (Macintosh)" etag="-7_Dfh705NL5jsoIfeAv" version="15.7.3" type="github">
  <diagram id="ttKtSrwF6XCQ2o045CMS" name="Page-1">
    <mxGraphModel dx="2365" dy="1538" grid="1" gridSize="10" guides="1" tooltips="1" connect="1" arrows="1" fold="1" page="1" pageScale="1" pageWidth="850" pageHeight="1100" math="0" shadow="0">
      <root>
        <mxCell id="0" />
        <mxCell id="1" parent="0" />
        <mxCell id="UgCB9UPbPLm7X-WozdRs-21" value="" style="whiteSpace=wrap;html=1;aspect=fixed;fillColor=#dae8fc;strokeColor=#6c8ebf;" vertex="1" parent="1">
          <mxGeometry x="400" y="160" width="600" height="600" as="geometry" />
        </mxCell>
        <mxCell id="UgCB9UPbPLm7X-WozdRs-4" value="" style="whiteSpace=wrap;html=1;aspect=fixed;fillColor=#f8cecc;strokeColor=#b85450;" vertex="1" parent="1">
          <mxGeometry x="1200" y="160" width="620" height="620" as="geometry" />
        </mxCell>
        <mxCell id="UgCB9UPbPLm7X-WozdRs-16" value="" style="strokeColor=#dddddd;shadow=1;strokeWidth=1;rounded=1;absoluteArcSize=1;arcSize=2;" vertex="1" parent="1">
          <mxGeometry x="410" y="690" width="130" height="60" as="geometry" />
        </mxCell>
        <mxCell id="UgCB9UPbPLm7X-WozdRs-17" value="&lt;div&gt;Gameserver&lt;/div&gt;&lt;div&gt;/Infra&lt;/div&gt;" style="sketch=0;dashed=0;connectable=0;html=1;fillColor=#5184F3;strokeColor=none;shape=mxgraph.gcp2.hexIcon;prIcon=container_engine;part=1;labelPosition=right;verticalLabelPosition=middle;align=left;verticalAlign=middle;spacingLeft=5;fontColor=#999999;fontSize=12;" vertex="1" parent="UgCB9UPbPLm7X-WozdRs-16">
          <mxGeometry y="0.5" width="44" height="39" relative="1" as="geometry">
            <mxPoint x="5" y="-19.5" as="offset" />
          </mxGeometry>
        </mxCell>
        <mxCell id="UgCB9UPbPLm7X-WozdRs-18" value="" style="strokeColor=#dddddd;shadow=1;strokeWidth=1;rounded=1;absoluteArcSize=1;arcSize=2;" vertex="1" parent="1">
          <mxGeometry x="1210" y="172" width="130" height="60" as="geometry" />
        </mxCell>
        <mxCell id="UgCB9UPbPLm7X-WozdRs-19" value="Challenges" style="sketch=0;dashed=0;connectable=0;html=1;fillColor=#5184F3;strokeColor=none;shape=mxgraph.gcp2.hexIcon;prIcon=container_engine;part=1;labelPosition=right;verticalLabelPosition=middle;align=left;verticalAlign=middle;spacingLeft=5;fontColor=#999999;fontSize=12;" vertex="1" parent="UgCB9UPbPLm7X-WozdRs-18">
          <mxGeometry y="0.5" width="44" height="39" relative="1" as="geometry">
            <mxPoint x="5" y="-19.5" as="offset" />
          </mxGeometry>
        </mxCell>
        <mxCell id="UgCB9UPbPLm7X-WozdRs-23" value="" style="rounded=0;whiteSpace=wrap;html=1;" vertex="1" parent="1">
          <mxGeometry x="410" y="174" width="170" height="140" as="geometry" />
        </mxCell>
        <mxCell id="UgCB9UPbPLm7X-WozdRs-24" value="" style="shape=image;verticalLabelPosition=bottom;labelBackgroundColor=#ffffff;verticalAlign=top;aspect=fixed;imageAspect=0;image=https://ctfd.io/static/img/ctfd.svg;" vertex="1" parent="1">
          <mxGeometry x="420.92" y="189.68" width="88.15" height="30.32" as="geometry" />
        </mxCell>
        <mxCell id="UgCB9UPbPLm7X-WozdRs-46" value="CTFd" style="text;html=1;strokeColor=none;fillColor=none;align=center;verticalAlign=middle;whiteSpace=wrap;rounded=0;" vertex="1" parent="1">
          <mxGeometry x="520" y="290" width="60" height="30" as="geometry" />
        </mxCell>
        <mxCell id="UgCB9UPbPLm7X-WozdRs-53" value="" style="whiteSpace=wrap;html=1;aspect=fixed;" vertex="1" parent="1">
          <mxGeometry x="410" y="340" width="180" height="180" as="geometry" />
        </mxCell>
        <mxCell id="UgCB9UPbPLm7X-WozdRs-58" value="&lt;div&gt;Service monitor&lt;/div&gt;&lt;div&gt;&lt;br&gt;&lt;/div&gt;" style="ellipse;whiteSpace=wrap;html=1;fontColor=#000000;fillColor=#FFFFFF;" vertex="1" parent="1">
          <mxGeometry x="520" y="282.5" width="30" height="25" as="geometry" />
        </mxCell>
        <mxCell id="UgCB9UPbPLm7X-WozdRs-60" value="" style="sketch=0;html=1;dashed=0;whitespace=wrap;fillColor=#2875E2;strokeColor=#ffffff;points=[[0.005,0.63,0],[0.1,0.2,0],[0.9,0.2,0],[0.5,0,0],[0.995,0.63,0],[0.72,0.99,0],[0.5,1,0],[0.28,0.99,0]];shape=mxgraph.kubernetes.icon;prIcon=svc" vertex="1" parent="1">
          <mxGeometry x="440" y="232" width="50" height="48" as="geometry" />
        </mxCell>
        <mxCell id="UgCB9UPbPLm7X-WozdRs-61" style="edgeStyle=orthogonalEdgeStyle;rounded=0;orthogonalLoop=1;jettySize=auto;html=1;exitX=0.5;exitY=0;exitDx=0;exitDy=0;entryX=0;entryY=0;entryDx=0;entryDy=0;fontColor=#000000;" edge="1" parent="1" source="UgCB9UPbPLm7X-WozdRs-58" target="UgCB9UPbPLm7X-WozdRs-58">
          <mxGeometry relative="1" as="geometry" />
        </mxCell>
        <mxCell id="UgCB9UPbPLm7X-WozdRs-63" value="" style="endArrow=classic;startArrow=classic;html=1;rounded=0;fontColor=#000000;exitX=0.995;exitY=0.63;exitDx=0;exitDy=0;exitPerimeter=0;entryX=0;entryY=0.5;entryDx=0;entryDy=0;" edge="1" parent="1" source="UgCB9UPbPLm7X-WozdRs-60" target="UgCB9UPbPLm7X-WozdRs-58">
          <mxGeometry width="50" height="50" relative="1" as="geometry">
            <mxPoint x="520" y="540" as="sourcePoint" />
            <mxPoint x="570" y="490" as="targetPoint" />
          </mxGeometry>
        </mxCell>
        <mxCell id="UgCB9UPbPLm7X-WozdRs-64" value="" style="endArrow=classic;html=1;rounded=0;fontColor=#000000;exitX=1;exitY=0.5;exitDx=0;exitDy=0;entryX=0.5;entryY=0;entryDx=0;entryDy=0;" edge="1" parent="1" source="UgCB9UPbPLm7X-WozdRs-58" target="UgCB9UPbPLm7X-WozdRs-49">
          <mxGeometry width="50" height="50" relative="1" as="geometry">
            <mxPoint x="520" y="540" as="sourcePoint" />
            <mxPoint x="570" y="490" as="targetPoint" />
            <Array as="points">
              <mxPoint x="690" y="300" />
              <mxPoint x="690" y="170" />
              <mxPoint x="936" y="170" />
            </Array>
          </mxGeometry>
        </mxCell>
        <mxCell id="UgCB9UPbPLm7X-WozdRs-65" value="" style="endArrow=classic;html=1;rounded=0;fontColor=#000000;exitX=0.5;exitY=1;exitDx=0;exitDy=0;entryX=0.5;entryY=0;entryDx=0;entryDy=0;" edge="1" parent="1" source="UgCB9UPbPLm7X-WozdRs-59" target="UgCB9UPbPLm7X-WozdRs-49">
          <mxGeometry width="50" height="50" relative="1" as="geometry">
            <mxPoint x="520" y="540" as="sourcePoint" />
            <mxPoint x="570" y="490" as="targetPoint" />
            <Array as="points">
              <mxPoint x="765" y="340" />
              <mxPoint x="937" y="340" />
            </Array>
          </mxGeometry>
        </mxCell>
        <mxCell id="UgCB9UPbPLm7X-WozdRs-71" value="" style="shape=image;verticalLabelPosition=bottom;labelBackgroundColor=#ffffff;verticalAlign=top;aspect=fixed;imageAspect=0;image=https://landscape.cncf.io/logos/falco.svg;" vertex="1" parent="1">
          <mxGeometry x="420.92" y="359.53999999999996" width="60.92" height="60.92" as="geometry" />
        </mxCell>
        <mxCell id="UgCB9UPbPLm7X-WozdRs-72" value="" style="shape=image;verticalLabelPosition=bottom;labelBackgroundColor=#ffffff;verticalAlign=top;aspect=fixed;imageAspect=0;image=https://github.com/falcosecurity/falcosidekick/raw/master/imgs/falcosidekick_color.png;" vertex="1" parent="1">
          <mxGeometry x="509.07" y="354" width="72" height="72" as="geometry" />
        </mxCell>
        <mxCell id="UgCB9UPbPLm7X-WozdRs-73" value="" style="group" vertex="1" connectable="0" parent="1">
          <mxGeometry x="730" y="510" width="264" height="240" as="geometry" />
        </mxCell>
        <mxCell id="UgCB9UPbPLm7X-WozdRs-50" value="" style="rounded=0;whiteSpace=wrap;html=1;" vertex="1" parent="UgCB9UPbPLm7X-WozdRs-73">
          <mxGeometry width="264" height="240" as="geometry" />
        </mxCell>
        <mxCell id="UgCB9UPbPLm7X-WozdRs-49" value="" style="shape=image;verticalLabelPosition=bottom;labelBackgroundColor=#ffffff;verticalAlign=top;aspect=fixed;imageAspect=0;image=https://landscape.cncf.io/logos/prometheus.svg;" vertex="1" parent="UgCB9UPbPLm7X-WozdRs-73">
          <mxGeometry x="170" y="5" width="73.5" height="73.5" as="geometry" />
        </mxCell>
        <mxCell id="UgCB9UPbPLm7X-WozdRs-52" value="" style="shape=image;verticalLabelPosition=bottom;labelBackgroundColor=#ffffff;verticalAlign=top;aspect=fixed;imageAspect=0;image=https://landscape.cncf.io/logos/grafana.svg;" vertex="1" parent="UgCB9UPbPLm7X-WozdRs-73">
          <mxGeometry x="160" y="120" width="60" height="60" as="geometry" />
        </mxCell>
        <mxCell id="UgCB9UPbPLm7X-WozdRs-54" value="Black box &lt;br&gt;Exporter" style="whiteSpace=wrap;html=1;aspect=fixed;fillColor=#000000;fontColor=#FFFFFF;" vertex="1" parent="UgCB9UPbPLm7X-WozdRs-73">
          <mxGeometry x="60" y="150" width="60" height="60" as="geometry" />
        </mxCell>
        <mxCell id="UgCB9UPbPLm7X-WozdRs-69" value="" style="endArrow=classic;html=1;rounded=0;fontColor=#000000;exitX=0.5;exitY=1;exitDx=0;exitDy=0;entryX=0.5;entryY=0;entryDx=0;entryDy=0;" edge="1" parent="UgCB9UPbPLm7X-WozdRs-73" source="UgCB9UPbPLm7X-WozdRs-49" target="UgCB9UPbPLm7X-WozdRs-52">
          <mxGeometry width="50" height="50" relative="1" as="geometry">
            <mxPoint x="910" y="670" as="sourcePoint" />
            <mxPoint x="960" y="620" as="targetPoint" />
          </mxGeometry>
        </mxCell>
        <mxCell id="UgCB9UPbPLm7X-WozdRs-109" value="&lt;div&gt;Monitoring&lt;/div&gt;" style="text;html=1;strokeColor=none;fillColor=none;align=center;verticalAlign=middle;whiteSpace=wrap;rounded=0;fontColor=#000000;" vertex="1" parent="UgCB9UPbPLm7X-WozdRs-73">
          <mxGeometry x="204" y="210" width="60" height="30" as="geometry" />
        </mxCell>
        <mxCell id="UgCB9UPbPLm7X-WozdRs-74" value="" style="group" vertex="1" connectable="0" parent="1">
          <mxGeometry x="740" y="350" width="185" height="136" as="geometry" />
        </mxCell>
        <mxCell id="UgCB9UPbPLm7X-WozdRs-43" value="" style="rounded=0;whiteSpace=wrap;html=1;" vertex="1" parent="UgCB9UPbPLm7X-WozdRs-74">
          <mxGeometry width="185" height="136" as="geometry" />
        </mxCell>
        <mxCell id="UgCB9UPbPLm7X-WozdRs-31" value="" style="sketch=0;aspect=fixed;html=1;points=[];align=center;image;fontSize=12;image=img/lib/mscae/Cache_Redis_Product.svg;" vertex="1" parent="UgCB9UPbPLm7X-WozdRs-74">
          <mxGeometry x="110" y="16" width="50" height="42" as="geometry" />
        </mxCell>
        <mxCell id="UgCB9UPbPLm7X-WozdRs-35" value="" style="sketch=0;html=1;dashed=0;whitespace=wrap;fillColor=#2875E2;strokeColor=#ffffff;points=[[0.005,0.63,0],[0.1,0.2,0],[0.9,0.2,0],[0.5,0,0],[0.995,0.63,0],[0.72,0.99,0],[0.5,1,0],[0.28,0.99,0]];shape=mxgraph.kubernetes.icon;prIcon=svc" vertex="1" parent="UgCB9UPbPLm7X-WozdRs-74">
          <mxGeometry x="10" y="16" width="50" height="48" as="geometry" />
        </mxCell>
        <mxCell id="UgCB9UPbPLm7X-WozdRs-48" value="Redis" style="text;html=1;strokeColor=none;fillColor=none;align=center;verticalAlign=middle;whiteSpace=wrap;rounded=0;" vertex="1" parent="UgCB9UPbPLm7X-WozdRs-74">
          <mxGeometry x="125" y="96" width="60" height="30" as="geometry" />
        </mxCell>
        <mxCell id="UgCB9UPbPLm7X-WozdRs-56" value="&lt;div&gt;Service monitor&lt;/div&gt;&lt;div&gt;&lt;br&gt;&lt;/div&gt;" style="ellipse;whiteSpace=wrap;html=1;fontColor=#000000;fillColor=#FFFFFF;" vertex="1" parent="UgCB9UPbPLm7X-WozdRs-74">
          <mxGeometry x="20" y="98.5" width="30" height="25" as="geometry" />
        </mxCell>
        <mxCell id="UgCB9UPbPLm7X-WozdRs-45" value="" style="endArrow=classic;startArrow=classic;html=1;rounded=0;entryX=0.995;entryY=0.63;entryDx=0;entryDy=0;entryPerimeter=0;" edge="1" parent="UgCB9UPbPLm7X-WozdRs-74" source="UgCB9UPbPLm7X-WozdRs-31" target="UgCB9UPbPLm7X-WozdRs-35">
          <mxGeometry width="50" height="50" relative="1" as="geometry">
            <mxPoint x="520" y="340" as="sourcePoint" />
            <mxPoint x="570" y="290" as="targetPoint" />
          </mxGeometry>
        </mxCell>
        <mxCell id="UgCB9UPbPLm7X-WozdRs-67" value="" style="endArrow=classic;html=1;rounded=0;fontColor=#000000;exitX=0.5;exitY=1;exitDx=0;exitDy=0;exitPerimeter=0;entryX=0.5;entryY=0;entryDx=0;entryDy=0;" edge="1" parent="UgCB9UPbPLm7X-WozdRs-74" source="UgCB9UPbPLm7X-WozdRs-35" target="UgCB9UPbPLm7X-WozdRs-56">
          <mxGeometry width="50" height="50" relative="1" as="geometry">
            <mxPoint x="780" y="450" as="sourcePoint" />
            <mxPoint x="830" y="400" as="targetPoint" />
          </mxGeometry>
        </mxCell>
        <mxCell id="UgCB9UPbPLm7X-WozdRs-75" value="" style="group" vertex="1" connectable="0" parent="1">
          <mxGeometry x="730" y="180" width="185" height="136" as="geometry" />
        </mxCell>
        <mxCell id="UgCB9UPbPLm7X-WozdRs-41" value="" style="rounded=0;whiteSpace=wrap;html=1;" vertex="1" parent="UgCB9UPbPLm7X-WozdRs-75">
          <mxGeometry width="185" height="136" as="geometry" />
        </mxCell>
        <mxCell id="UgCB9UPbPLm7X-WozdRs-32" value="" style="sketch=0;outlineConnect=0;fontColor=#232F3E;gradientColor=none;fillColor=#2E27AD;strokeColor=none;dashed=0;verticalLabelPosition=bottom;verticalAlign=top;align=center;html=1;fontSize=12;fontStyle=0;aspect=fixed;pointerEvents=1;shape=mxgraph.aws4.rds_mariadb_instance;" vertex="1" parent="UgCB9UPbPLm7X-WozdRs-75">
          <mxGeometry x="107" y="6" width="78" height="78" as="geometry" />
        </mxCell>
        <mxCell id="UgCB9UPbPLm7X-WozdRs-34" value="" style="sketch=0;html=1;dashed=0;whitespace=wrap;fillColor=#2875E2;strokeColor=#ffffff;points=[[0.005,0.63,0],[0.1,0.2,0],[0.9,0.2,0],[0.5,0,0],[0.995,0.63,0],[0.72,0.99,0],[0.5,1,0],[0.28,0.99,0]];shape=mxgraph.kubernetes.icon;prIcon=svc" vertex="1" parent="UgCB9UPbPLm7X-WozdRs-75">
          <mxGeometry x="10" y="26" width="50" height="48" as="geometry" />
        </mxCell>
        <mxCell id="UgCB9UPbPLm7X-WozdRs-47" value="&lt;div&gt;Mariadb&lt;/div&gt;" style="text;html=1;strokeColor=none;fillColor=none;align=center;verticalAlign=middle;whiteSpace=wrap;rounded=0;" vertex="1" parent="UgCB9UPbPLm7X-WozdRs-75">
          <mxGeometry x="116" y="106" width="60" height="30" as="geometry" />
        </mxCell>
        <mxCell id="UgCB9UPbPLm7X-WozdRs-59" value="&lt;div&gt;Service monitor&lt;/div&gt;&lt;div&gt;&lt;br&gt;&lt;/div&gt;" style="ellipse;whiteSpace=wrap;html=1;fontColor=#000000;fillColor=#FFFFFF;" vertex="1" parent="UgCB9UPbPLm7X-WozdRs-75">
          <mxGeometry x="20" y="106" width="30" height="25" as="geometry" />
        </mxCell>
        <mxCell id="UgCB9UPbPLm7X-WozdRs-44" value="" style="endArrow=classic;startArrow=classic;html=1;rounded=0;entryX=0.995;entryY=0.63;entryDx=0;entryDy=0;entryPerimeter=0;" edge="1" parent="UgCB9UPbPLm7X-WozdRs-75" source="UgCB9UPbPLm7X-WozdRs-32" target="UgCB9UPbPLm7X-WozdRs-34">
          <mxGeometry width="50" height="50" relative="1" as="geometry">
            <mxPoint x="520" y="340" as="sourcePoint" />
            <mxPoint x="570" y="290" as="targetPoint" />
          </mxGeometry>
        </mxCell>
        <mxCell id="UgCB9UPbPLm7X-WozdRs-68" value="" style="endArrow=classic;html=1;rounded=0;fontColor=#000000;exitX=0.5;exitY=1;exitDx=0;exitDy=0;exitPerimeter=0;" edge="1" parent="UgCB9UPbPLm7X-WozdRs-75" source="UgCB9UPbPLm7X-WozdRs-34" target="UgCB9UPbPLm7X-WozdRs-59">
          <mxGeometry width="50" height="50" relative="1" as="geometry">
            <mxPoint x="780" y="390" as="sourcePoint" />
            <mxPoint x="830" y="340" as="targetPoint" />
          </mxGeometry>
        </mxCell>
        <mxCell id="UgCB9UPbPLm7X-WozdRs-36" value="" style="endArrow=classic;startArrow=classic;html=1;rounded=0;entryX=0.005;entryY=0.63;entryDx=0;entryDy=0;entryPerimeter=0;exitX=1;exitY=0.75;exitDx=0;exitDy=0;" edge="1" parent="1" source="UgCB9UPbPLm7X-WozdRs-23" target="UgCB9UPbPLm7X-WozdRs-35">
          <mxGeometry width="50" height="50" relative="1" as="geometry">
            <mxPoint x="520" y="340" as="sourcePoint" />
            <mxPoint x="570" y="290" as="targetPoint" />
          </mxGeometry>
        </mxCell>
        <mxCell id="UgCB9UPbPLm7X-WozdRs-37" value="" style="endArrow=classic;startArrow=classic;html=1;rounded=0;entryX=0.005;entryY=0.63;entryDx=0;entryDy=0;entryPerimeter=0;exitX=1;exitY=0.5;exitDx=0;exitDy=0;" edge="1" parent="1" source="UgCB9UPbPLm7X-WozdRs-23" target="UgCB9UPbPLm7X-WozdRs-34">
          <mxGeometry width="50" height="50" relative="1" as="geometry">
            <mxPoint x="520" y="340" as="sourcePoint" />
            <mxPoint x="570" y="290" as="targetPoint" />
          </mxGeometry>
        </mxCell>
        <mxCell id="UgCB9UPbPLm7X-WozdRs-66" value="" style="endArrow=classic;html=1;rounded=0;fontColor=#000000;exitX=0.5;exitY=1;exitDx=0;exitDy=0;entryX=0.5;entryY=0;entryDx=0;entryDy=0;" edge="1" parent="1" source="UgCB9UPbPLm7X-WozdRs-56" target="UgCB9UPbPLm7X-WozdRs-49">
          <mxGeometry width="50" height="50" relative="1" as="geometry">
            <mxPoint x="720" y="390" as="sourcePoint" />
            <mxPoint x="770" y="340" as="targetPoint" />
            <Array as="points">
              <mxPoint x="775" y="500" />
              <mxPoint x="937" y="500" />
            </Array>
          </mxGeometry>
        </mxCell>
        <mxCell id="UgCB9UPbPLm7X-WozdRs-76" value="" style="sketch=0;html=1;dashed=0;whitespace=wrap;fillColor=#2875E2;strokeColor=#ffffff;points=[[0.005,0.63,0],[0.1,0.2,0],[0.9,0.2,0],[0.5,0,0],[0.995,0.63,0],[0.72,0.99,0],[0.5,1,0],[0.28,0.99,0]];shape=mxgraph.kubernetes.icon;prIcon=ing;fontColor=#000000;" vertex="1" parent="1">
          <mxGeometry x="320" y="232" width="50" height="48" as="geometry" />
        </mxCell>
        <mxCell id="UgCB9UPbPLm7X-WozdRs-77" value="" style="sketch=0;html=1;dashed=0;whitespace=wrap;fillColor=#2875E2;strokeColor=#ffffff;points=[[0.005,0.63,0],[0.1,0.2,0],[0.9,0.2,0],[0.5,0,0],[0.995,0.63,0],[0.72,0.99,0],[0.5,1,0],[0.28,0.99,0]];shape=mxgraph.kubernetes.icon;prIcon=ing;fontColor=#000000;" vertex="1" parent="1">
          <mxGeometry x="320" y="320" width="50" height="48" as="geometry" />
        </mxCell>
        <mxCell id="UgCB9UPbPLm7X-WozdRs-79" value="" style="endArrow=classic;html=1;rounded=0;fontColor=#000000;exitX=0.995;exitY=0.63;exitDx=0;exitDy=0;exitPerimeter=0;entryX=0.005;entryY=0.63;entryDx=0;entryDy=0;entryPerimeter=0;" edge="1" parent="1" source="UgCB9UPbPLm7X-WozdRs-76" target="UgCB9UPbPLm7X-WozdRs-60">
          <mxGeometry width="50" height="50" relative="1" as="geometry">
            <mxPoint x="600" y="590" as="sourcePoint" />
            <mxPoint x="650" y="540" as="targetPoint" />
          </mxGeometry>
        </mxCell>
        <mxCell id="UgCB9UPbPLm7X-WozdRs-80" value="" style="endArrow=classic;html=1;rounded=0;fontColor=#000000;exitX=0.995;exitY=0.63;exitDx=0;exitDy=0;exitPerimeter=0;entryX=0.5;entryY=1;entryDx=0;entryDy=0;" edge="1" parent="1" source="UgCB9UPbPLm7X-WozdRs-77" target="UgCB9UPbPLm7X-WozdRs-52">
          <mxGeometry width="50" height="50" relative="1" as="geometry">
            <mxPoint x="1020" y="575" as="sourcePoint" />
            <mxPoint x="1070" y="525" as="targetPoint" />
            <Array as="points">
              <mxPoint x="370" y="790" />
              <mxPoint x="920" y="790" />
            </Array>
          </mxGeometry>
        </mxCell>
        <mxCell id="UgCB9UPbPLm7X-WozdRs-85" value="" style="shape=image;verticalLabelPosition=bottom;labelBackgroundColor=#ffffff;verticalAlign=top;aspect=fixed;imageAspect=0;image=data:image/png,iVBORw0KGgoAAAANSUhEUgAAANUAAADwCAYAAACXISEGAAAACXBIWXMAACE4AAAhOAFFljFgAAAAAXNSR0IArs4c6QAAAARnQU1BAACxjwv8YQUAABMaSURBVHgB7d3fblRHngfwX9VpGxMIxivNXMzF5pCbvYyZB1iaPMDSGWnBZLWLIdiKIu3i5AFiOw8QYC9GIyCDvRcTLyMl5gWS5gUSc7HSai6Gk4toVzOa6bZNoME+9Zuq092mbdru093nT53q70dijLEZk+7zO79f/apOFREAAAAAAAAAAAAAAAAAAAAAAAAAAAAAAAAAAAAAAAAAAAAAAAAAAAAAAAAAAACAfQTBkWY+rPlqh6ZLsvSWkjxNLIK1O28u04iYmd9eZOJpofgxkapSiYK130wFBIdCUHWoLNROj29TWUhZJiHekorKLOj0a9/I4fm1e1NVctzM9Zp+HbxvD/65YKrr12WDmB+ZQGucpI31W1N1gshIB5XJQvSSyjTmnSPFZf1y+DH/anXt7qnz5LiZua0n+oMf53t1NtsQJDaUCh/KMdoY5Ww2UkFlMtHEFlUGCKLXOZ6tdEDN6g/3aXCB/lU1QfbyTaqOUiZzPqiiEkaWzulSpaw/LVNynM5W/WSpmKrtctH10tm5oGqPi2TJuyBCqnQdEyXF0WyVQJbqJaBWFnvwxdQ6OcaJoNor6zzvih5ET6caSPs5ma1SyFKHMk0PJakqSa4/f2PnoQtlYmGDKgqkpzStu1OLGQfSfo5lq8M6fllodRXXi57BChdU5k1nISuSxZXcAmk/p7KVzlImoMqUv4CicVi4WrSbViGCKspKz0o3iNXsUB27tCSYraL/1kb8m0VjgupJlUzRFEPoPSH7BELIJZY7j4rQqrc6qFqlyCLZcec8Stds1Q4QsyJDsg4UKX2TXYUUk6TI13M7p/UbcFqwOJ1M1uWg+VE0P0oKWPGmKatIqcB8Hgqq75ygoFsgzlzfXNGT3lfIbiu2Zy/rgqqdlYTiBUvKu3jC8Cp7ctoEjL6QdRAJ3+Z/f9QgEDoIhQiiJUgm6DwvzY5f0qzNXtYE1ftztemQ5KxFYyUogHZzg7xw2Zbgyj2oTDAp8m6S/SUe2G/FhuDKNahaA2PTbfIJIBlBYyc8u76S33yXpDztyiVCQEGy/OPjUXMrN7llqgyWwsAoy3FSPpegQtkHGcitDMyn/EPZB+nLrQzMPFNd/KBWkdL7mgCykEMZmHmm0gF1kwCyIrz7ldlapvOemQbVzPVtk459AsiOPzEuFyhDmZV/Fi/WBMcxUV144dmsJoWzy1TN5gRA5syiZX1Dz2z6JpOgiuak7F/9DG4rR089ZCCrTJXrDDdAJKOmRepBheYEWCSTpkWqjQqsnADbZNG0SDdTYeUEWKbVtEh1OJJapkILHayW4kqL9DIVWuhgM5FetkolU+W5dxxAbCllq3QylSjUBiIwoljIVNahJh5UrYcPfQKwnCAxfXn+aeKLEtLIVJjohcJgVkuUsESDClkKCsi/OL+Z6IRw0pkKWQoKR7BYTHL5UmJBhSwFRWUmhJNcvpRkpkKWgsJiFjeSylaJBBWyFBSdyVbjJTlLCUgqUyFLQeFJIW5QAoYOqosfbFUIWQrc4CcxbzV0UElJiUQ3gA04OlhwOEOt/fvnudq0R973BOCSIdcEDpWpPM526yeATAy5gn3gTIXnpcBpQ2SrwTMVnpcCh7GQFRrQ4EElxDkCcJa4Muhk8EBBhclecN0wS5cGCiqzpIMAXMeDbQDbd1CZNroQPE0A7vMH2dW276BCGx1GygDt9b5a6mbgdnzMe8Jm7zSAEdHYCaf6Oea0r0w1MeZVEFAwavptWPRb/uHkDhg93N/0UezyDysoYKT1scIidqbiHTQoYHT1s8IidlAJKS4QwMiKP2cVK6havXqfAEaUWWERd84qZqZK5tl9gEITXqxsFS+osHgWwBwYV4mzyLZnUKH0A2iKFtmWqOcSvRiZCqUfwJ4YJWDvoELpB7DHlIC9vufIoDIr0gmlH8CeOF3AI4NKKpR+AAf1mgg+uvwTEqUfwAGCjl4IcejaP6z1AziCF55Z+81U0O1Lh2eq0CvTiBDMdcG0LokXzMJJ84I1ToRTa3dPCfN7SeFZpcL3iHlVJ/+ARoh5bfSHFQrDq+Z1iC4m/bq0XxvzejVft9F6bdTu4SXgoZnq0vWtr4Wg2IsIC4mpKgWvPzuhVtdvxX8IrTlQ1eNNMdgeBoWgXxt9Z13ud++7ix/UKlJ4N/SVVSa3VfWN5Xy3LxwaVJfntmruPpDIgRLq4wd3ptZpCFGJbPY/dCm4Bgymg6Ibj5D39SXmk4N0bNRf7IRnuj0R3DWomi+I9y25SJcpjZNqoZ/M1MvMXG1W10I3C38TEry8dmdyiRI0c33T3HTcPGrpkGesuo6pBEk3d0syF829ydkkA8pYuzu1wp4ebxR0TBGNm8wFknBAGfr1XjLjUX33TvQ1t8FhrXXZ/ZsdfHYqhbtwp6gT5KnzRQusqEkj1Plhy72jPPhial1QeN61wNKt9Xe6/fkhmYrcylQpB1RbEQPLBNTv7k5tUMrMz2DWHVS3lLutWn8tqMx4yrEGxUoWAdUWBRarq1QE+maTRUC1mWyoOPyYHNJt1fprQeXWeIoDPd+U+ZsYlVLMy2S3TG82bQ/uTd3SH6rkCinLr/3RwT9Q5M6qdCHEUtJNibjMAN3WMjBqTHhhfkHvhVedGV912b7staCSjkzaMdP6l3dOrVKeLC0DWdLtw5bYZMH8bGa+TQ5g6lH+mUc9XBlP6W5T7m9aq6NWJavo7CnVCuWssatuuZCtokdBzCKADvuCSijPJzdU02wR90OXWg/JKqKaZ5ZqMysRlOJ8K4mkHFgnuz+oiMvkACFohSzxfFet2HRHDi3I4G26nT/UMjFbMO0/Wmp/UMnuk1lFwzJ8RJYwd2S2Jltx8PsMW+i9tKqJgApOB9G5A5+/4sikrxXlzT5KVMkCerxsWSlqejm2lcf90x1zv/PzvaBypUmhU/Fjss14WCULeFJYt0hasLAmcw7qYLNiL6hcaVLYeOGYzGnDuGpHhT+QZUIvLHxQRTqaFXtBJR05x1eF4SZZiC0IKpvGU207O8UfU0WY/fZv94KKyY0mBZWsfZMCyldAFurn2E+rCfFW+7cdjQrhkwMaDTsnFJnde54oQQEVX7n9m1djKkfKP1vvfHoOMNeyVP98BHW6/PZvoqA6uMyiyOKcypCLjvIgD7q8t7azKxxZGteOo2am2nVna+eJCVc3q3GXK+tNJXtRXyIKKpeeoQpDa98gn/Llk4WsrSwGsBvyGfMxCiqXnvT1yLP1BuFTzmws8+Oc91QUQjTf41ZQOdJOp9cXN9qgdXpK/izcddilKkmQmDQfm+WfcCdTHVzcaIMSyzJZwMYbjlNPmrde33ZL3SdH6Kw7bVOdvrTE1mz51uu0ijzoG7ozmardYZXmTSfHDnY7VrLnXK3//f+6T2TNFgV+rwPLsuTgedK++R/ZetOdInRmmF1ksoJl45heB5Zly56bX1JMM0i6NEfVodz4sV6mnH30URTYlu0jLq7YUB5HnUgHT00xUzoxTqcvKOEtzs/nl61MWf3Xne1Zsqy8MasXJsblAuXNnJbioDHpvSXJnc1eDirXw/p7rTFj5jbqdZMNrDztglncyHPOytUsZShFU5Lkq+dAXCOl9/lGUJ+ijJkMeexZyQSUTxaK1tqF3n3KS54/O23MvrvlX5N/bNz77exCdtnKZMY6bb8nmPMvsY5WnpnfzjyTzlyPfmaZHMWiOabyyWGCqdJ49nQpi8AyAaW7qWck0+dUBMxLl+e3MivDLs5vVfQbskQOM6sqpJ6YnCTXMS+mHVjtgNKlzTdUoBuVYrqVxTKq9/XP8BS5W/Z1kK48y9JTK7D+9cNtkXTz4l/+nekPP9bPFi2gDPP+e+R9f3F+M7Vy9fL80yvM3rfs0HK4Izg/ptpPB9ZLxV+ZjNKaQxqKCc7Zj54Kbjxd0BdN4QKqky5ZbqYxxro0v3WTWa2MSEBFxKXr29+78ih9HwIh5LJUcnVy/Dj//OcmQETsv2xWa7z4v23BIvT1lMRvya2Bd0AcXk3idHoWpZvCwkW8KQvEzNzWE3K8WXGEKLieH995+OaLUl2NneSxv9MvhngVZCYb/Y/++LM/Eb04tiUa22MU0ouyvrdfcXWupaWqVHjbnNfbz1+K1vPpiXdyuMPXw8gHVUR3COtKUtVj8Ujx7mPy9N1aTATma41jjdNjz8j3QppmT76jQ+2CKztPxRToX1V986my2vmBShS0t9U2k7hmWY55bWjMOydCqoxSmXeIQFye26o5dsYvQG7MpqkSAQWQHNNNHa3uH0AGEFQACUNQASQMQQWQMAQVQMIQVAAJQ1ABJAxBBZAwacNZtACuaK+oQFABJMQkKZR/AAlDUAEkyBwDK5kFyj+AhDCJuhQCBywDJAmNCoAEMalNKZg3CQASIUjW9JgKmQogKUysM5VAUAEkxex34tyKCl3O1iia2IYC4Nb75Q4hAsnKmZa6rmT51vOT6m1J4S/1ZyuE4LKSCSTzXoX6fXq+q97W1dLX5AgpqVYiGQZEHhUca5/8973JW63PN/SvqzMf1pZpVy7q0eO51rZi8XfMhKSZrFTXd7n/1De+W+u3pjpv5r+aub65pO/yn1LB3yMVhpvCbE5v9tKmwuJAknrvd3enNo76rpm52iyx92/6LSsTgitLOilRlSj8rNeutxc/qFU86d0v9A5fXnhGmPNfJ8bkd/o6O0PFVG3shL/6xRuna7/+de9YiU7xQ/ZK215WaryelboyJ7LUuT418czT12JRN3flJ2t3J9+OLqgosEryZmsb4yJeZPv2Ro8TXEa0RTHJK2bXWRbC3B0RYIOLAkkJWhWsHsbdi92cOvmTei5CGS4KxTcKusOtGc/ffnFCLZsbyL6LyJRIgrzP9R0m8yM9ExIF17ESrdLPTvDKcvwYMaWHFPICMlhfmhlJiHXi8L8aJ2kjTlYyzCEP9OefxLNdVWkdkudTAZmmSyjVtQd3Xu05/9qFY8ojDuVXgsRZKq6qfpM/mxgfq/YbXEY7g3UEmIEg2+umcqB/87CfjNTWDqbGyx1zkIFpTJSpmJpjxVJ4rb23fNuhF4oj3Zi94HqDTsQuCztFY7CQyjqD/5NO8uVWmWiMQpBFQdQcH4kNKfih8nQgHbiI4jBl3suSE8EUZSdF9FlHt3n/14/6y80LSn5T4CZGmzm1YrXfMVc370dHecpz+iLTv8zZS8JvfcmFINsLIn1DrQriR4rV40HPqjLHEAW6GAyfPRcvwhcVKb3/oGIfsXNoduoU60JwZQ6BOhoaSu7SP/ziTe7nsLduzI1H7dC0Ho+ZAPtHc8hZRzYzbHzN9ibF21lID44ei1A9pnGqDpKJOpkSz9vaEn9R6vTE89KNAjcg9vTKTvu+l2JqZq29UwMLH1xkSkOpS0NvLBi0NDxMZUF3U59GgfZOaM6QY/GOvsWZ0yD8AwFnpPFadllJwoEeJ28o4h/0VH+wq9QPcow2hg2gTubs47GwWeKxbvpIFlccOK8qVnbq1PcbGk2ikvzUgZKwzZSGK1/eOblKGTAB98ZP5CvWF5vSHS8p/egLQvy9OYaFuXkRmiAUvS5IFkHzr5KZE6qbFdKCaZOUCnRru16SFCiP6kkGzmFMqfeHH58u6KC9QI6cohitS5T08Zd3Jvu6Nga6S76aQC3svNYBHOhJO1duErloLiLwXFkcu2/eifo0VEA0lzjJrwo/ryN4ee3O5BLBUPTY+76+0c5SccVeUnWUoXZT+v3dqQ2zLEP/I66ZJRpUSByQVCsEwyup5aI+ShStnGf+ZO3eqXeHCSgjkS3K1u5OrZCn3i3k4xaCVrMYc4wC8zrqC/M2FUg0bmJeNo8Mxensxfr/pIQVa7zVXABJkBgztjo+5v2xAEvddGOS1tkLP0n6ppraRR+Nt9j73OZHLYTg2X47O9Dbpeu1BSG8m2SnRMZNR0n9Yu9owftkVXAhS6VpZm7zj5ZNu6QeTG2pb/tsxlsHmhl2jLnMGBDSw+oa2cEE07fE4btJNCHiyDxzWJK5dKCfukqQqpm5rW/0h/OUj8wy00G5lWPNxyu8T7Mfc+lsqbMUOn7pM00rEXrfZdy0yC2Y2nIf47x6dimbbiGaE9nKsGlhhhUr5mHJvIKpzZrGQSZ7R+ja2tTVBJm6NLf5XUoPvfa9F0YWrGt1Ryu8f6JKKuMuLzyDsi975hk0leyOXVGJZx6afHZCrdoSTG1WT84eKA2Nwf+9WN+Xq9YzeYs0uIE2lslDIRbBth9pHzx7YU4qb0NshWd1VuqmcCvLo1KC5Y24Y69ooWRJ/RJlX/5aZaDZ16/Xdbc3ViJSVZuzUjeFfhYqzr59zPxxUgslYXhHdAMLU9714sADhk3tffsOBBgmeS3UMSnsTCB1KpEjHnwRbWYYbWhoAkxIeU54qlCPIYwML7zGobxhAulLRwIJAAAAAAAAAAAAAAAAAAAAAAAAAAAAAAAAAAAAAAAAAAAAAAAAAAAAAAAAAAAAAAAAAAAAAAAAAAAAAAAAAAAAAAAAAAAAAAAAAAAAAAAAAABgn78BrvBNfcI36Z4AAAAASUVORK5CYII=;" vertex="1" parent="1">
          <mxGeometry x="300" y="440" width="53" height="59.72" as="geometry" />
        </mxCell>
        <mxCell id="UgCB9UPbPLm7X-WozdRs-86" value="" style="endArrow=classic;html=1;rounded=0;fontColor=#000000;exitX=1;exitY=0.5;exitDx=0;exitDy=0;entryX=0;entryY=0.5;entryDx=0;entryDy=0;" edge="1" parent="1" source="UgCB9UPbPLm7X-WozdRs-71" target="UgCB9UPbPLm7X-WozdRs-72">
          <mxGeometry width="50" height="50" relative="1" as="geometry">
            <mxPoint x="450" y="580" as="sourcePoint" />
            <mxPoint x="500" y="530" as="targetPoint" />
          </mxGeometry>
        </mxCell>
        <mxCell id="UgCB9UPbPLm7X-WozdRs-87" value="" style="endArrow=classic;html=1;rounded=0;fontColor=#000000;exitX=0.75;exitY=1;exitDx=0;exitDy=0;entryX=1;entryY=0.5;entryDx=0;entryDy=0;" edge="1" parent="1" source="UgCB9UPbPLm7X-WozdRs-72" target="UgCB9UPbPLm7X-WozdRs-85">
          <mxGeometry width="50" height="50" relative="1" as="geometry">
            <mxPoint x="300" y="540" as="sourcePoint" />
            <mxPoint x="500" y="530" as="targetPoint" />
            <Array as="points">
              <mxPoint x="563" y="470" />
            </Array>
          </mxGeometry>
        </mxCell>
        <mxCell id="UgCB9UPbPLm7X-WozdRs-88" value="" style="rounded=0;whiteSpace=wrap;html=1;fontColor=#000000;fillColor=#FFFFFF;" vertex="1" parent="1">
          <mxGeometry x="1230" y="256" width="210" height="264" as="geometry" />
        </mxCell>
        <mxCell id="UgCB9UPbPLm7X-WozdRs-90" value="" style="sketch=0;aspect=fixed;pointerEvents=1;shadow=0;dashed=0;html=1;strokeColor=none;labelPosition=center;verticalLabelPosition=bottom;verticalAlign=top;align=center;fillColor=#00188D;shape=mxgraph.mscae.enterprise.lock;fontColor=#000000;" vertex="1" parent="1">
          <mxGeometry x="1256" y="264" width="39" height="50" as="geometry" />
        </mxCell>
        <mxCell id="UgCB9UPbPLm7X-WozdRs-91" value="Challenge WEB" style="text;html=1;strokeColor=none;fillColor=none;align=center;verticalAlign=middle;whiteSpace=wrap;rounded=0;fontColor=#000000;" vertex="1" parent="1">
          <mxGeometry x="1310" y="274" width="60" height="30" as="geometry" />
        </mxCell>
        <mxCell id="UgCB9UPbPLm7X-WozdRs-92" value="" style="rounded=0;whiteSpace=wrap;html=1;fontColor=#000000;fillColor=#FFFFFF;" vertex="1" parent="1">
          <mxGeometry x="1470" y="256" width="210" height="264" as="geometry" />
        </mxCell>
        <mxCell id="UgCB9UPbPLm7X-WozdRs-93" value="" style="sketch=0;aspect=fixed;pointerEvents=1;shadow=0;dashed=0;html=1;strokeColor=none;labelPosition=center;verticalLabelPosition=bottom;verticalAlign=top;align=center;fillColor=#00188D;shape=mxgraph.mscae.enterprise.lock;fontColor=#000000;" vertex="1" parent="1">
          <mxGeometry x="1496" y="264" width="39" height="50" as="geometry" />
        </mxCell>
        <mxCell id="UgCB9UPbPLm7X-WozdRs-94" value="Challenge 2&amp;nbsp; PWN /non-web (L3)" style="text;html=1;strokeColor=none;fillColor=none;align=center;verticalAlign=middle;whiteSpace=wrap;rounded=0;fontColor=#000000;" vertex="1" parent="1">
          <mxGeometry x="1550" y="274" width="100" height="56" as="geometry" />
        </mxCell>
        <mxCell id="UgCB9UPbPLm7X-WozdRs-95" value="" style="sketch=0;html=1;dashed=0;whitespace=wrap;fillColor=#2875E2;strokeColor=#ffffff;points=[[0.005,0.63,0],[0.1,0.2,0],[0.9,0.2,0],[0.5,0,0],[0.995,0.63,0],[0.72,0.99,0],[0.5,1,0],[0.28,0.99,0]];shape=mxgraph.kubernetes.icon;prIcon=ing;fontColor=#000000;" vertex="1" parent="1">
          <mxGeometry x="1100" y="320" width="50" height="48" as="geometry" />
        </mxCell>
        <mxCell id="UgCB9UPbPLm7X-WozdRs-97" value="" style="endArrow=classic;html=1;rounded=0;fontColor=#000000;exitX=0.995;exitY=0.63;exitDx=0;exitDy=0;exitPerimeter=0;entryX=0.005;entryY=0.63;entryDx=0;entryDy=0;entryPerimeter=0;" edge="1" parent="1" source="UgCB9UPbPLm7X-WozdRs-95" target="UgCB9UPbPLm7X-WozdRs-98">
          <mxGeometry width="50" height="50" relative="1" as="geometry">
            <mxPoint x="1250" y="540" as="sourcePoint" />
            <mxPoint x="1300" y="490" as="targetPoint" />
          </mxGeometry>
        </mxCell>
        <mxCell id="UgCB9UPbPLm7X-WozdRs-98" value="" style="sketch=0;html=1;dashed=0;whitespace=wrap;fillColor=#2875E2;strokeColor=#ffffff;points=[[0.005,0.63,0],[0.1,0.2,0],[0.9,0.2,0],[0.5,0,0],[0.995,0.63,0],[0.72,0.99,0],[0.5,1,0],[0.28,0.99,0]];shape=mxgraph.kubernetes.icon;prIcon=svc;fontColor=#000000;" vertex="1" parent="1">
          <mxGeometry x="1256" y="320" width="50" height="48" as="geometry" />
        </mxCell>
        <mxCell id="UgCB9UPbPLm7X-WozdRs-99" value="" style="sketch=0;html=1;dashed=0;whitespace=wrap;fillColor=#2875E2;strokeColor=#ffffff;points=[[0.005,0.63,0],[0.1,0.2,0],[0.9,0.2,0],[0.5,0,0],[0.995,0.63,0],[0.72,0.99,0],[0.5,1,0],[0.28,0.99,0]];shape=mxgraph.kubernetes.icon;prIcon=svc;fontColor=#000000;" vertex="1" parent="1">
          <mxGeometry x="1490.5" y="330" width="50" height="48" as="geometry" />
        </mxCell>
        <mxCell id="UgCB9UPbPLm7X-WozdRs-100" value="" style="sketch=0;html=1;dashed=0;whitespace=wrap;fillColor=#2875E2;strokeColor=#ffffff;points=[[0.005,0.63,0],[0.1,0.2,0],[0.9,0.2,0],[0.5,0,0],[0.995,0.63,0],[0.72,0.99,0],[0.5,1,0],[0.28,0.99,0]];shape=mxgraph.kubernetes.icon;prIcon=ep;fontColor=#000000;" vertex="1" parent="1">
          <mxGeometry x="1100" y="400" width="50" height="48" as="geometry" />
        </mxCell>
        <mxCell id="UgCB9UPbPLm7X-WozdRs-101" value="" style="endArrow=classic;html=1;rounded=0;fontColor=#000000;exitX=0.995;exitY=0.63;exitDx=0;exitDy=0;exitPerimeter=0;entryX=0.005;entryY=0.63;entryDx=0;entryDy=0;entryPerimeter=0;" edge="1" parent="1" source="UgCB9UPbPLm7X-WozdRs-100" target="UgCB9UPbPLm7X-WozdRs-99">
          <mxGeometry width="50" height="50" relative="1" as="geometry">
            <mxPoint x="1250" y="540" as="sourcePoint" />
            <mxPoint x="1300" y="490" as="targetPoint" />
            <Array as="points">
              <mxPoint x="1150" y="550" />
              <mxPoint x="1460" y="550" />
              <mxPoint x="1460" y="360" />
            </Array>
          </mxGeometry>
        </mxCell>
        <mxCell id="UgCB9UPbPLm7X-WozdRs-102" value="" style="endArrow=classic;html=1;rounded=0;fontColor=#000000;exitX=0.75;exitY=1;exitDx=0;exitDy=0;entryX=0.005;entryY=0.63;entryDx=0;entryDy=0;entryPerimeter=0;" edge="1" parent="1" source="UgCB9UPbPLm7X-WozdRs-54" target="UgCB9UPbPLm7X-WozdRs-95">
          <mxGeometry relative="1" as="geometry">
            <mxPoint x="940" y="620" as="sourcePoint" />
            <mxPoint x="1040" y="620" as="targetPoint" />
            <Array as="points">
              <mxPoint x="1090" y="710" />
            </Array>
          </mxGeometry>
        </mxCell>
        <mxCell id="UgCB9UPbPLm7X-WozdRs-103" value="&lt;div&gt;HTTP Probe&lt;/div&gt;" style="edgeLabel;resizable=0;html=1;align=center;verticalAlign=middle;fontColor=#000000;fillColor=#FFFFFF;" connectable="0" vertex="1" parent="UgCB9UPbPLm7X-WozdRs-102">
          <mxGeometry relative="1" as="geometry" />
        </mxCell>
        <mxCell id="UgCB9UPbPLm7X-WozdRs-104" value="" style="endArrow=classic;html=1;rounded=0;fontColor=#000000;exitX=0.5;exitY=1;exitDx=0;exitDy=0;entryX=0.28;entryY=0.99;entryDx=0;entryDy=0;entryPerimeter=0;" edge="1" parent="1" source="UgCB9UPbPLm7X-WozdRs-54" target="UgCB9UPbPLm7X-WozdRs-100">
          <mxGeometry relative="1" as="geometry">
            <mxPoint x="845" y="729.9999999999998" as="sourcePoint" />
            <mxPoint x="1110.25" y="360.24" as="targetPoint" />
            <Array as="points">
              <mxPoint x="1114" y="730" />
            </Array>
          </mxGeometry>
        </mxCell>
        <mxCell id="UgCB9UPbPLm7X-WozdRs-105" value="TCP Probe" style="edgeLabel;resizable=0;html=1;align=center;verticalAlign=middle;fontColor=#000000;fillColor=#FFFFFF;" connectable="0" vertex="1" parent="UgCB9UPbPLm7X-WozdRs-104">
          <mxGeometry relative="1" as="geometry">
            <mxPoint y="-130" as="offset" />
          </mxGeometry>
        </mxCell>
        <mxCell id="UgCB9UPbPLm7X-WozdRs-106" value="&lt;div&gt;Chal1&lt;/div&gt;" style="text;html=1;strokeColor=none;fillColor=none;align=center;verticalAlign=middle;whiteSpace=wrap;rounded=0;fontColor=#000000;" vertex="1" parent="1">
          <mxGeometry x="1360" y="480" width="60" height="30" as="geometry" />
        </mxCell>
        <mxCell id="UgCB9UPbPLm7X-WozdRs-107" value="Chal2" style="text;html=1;strokeColor=none;fillColor=none;align=center;verticalAlign=middle;whiteSpace=wrap;rounded=0;fontColor=#000000;" vertex="1" parent="1">
          <mxGeometry x="1600" y="486" width="60" height="30" as="geometry" />
        </mxCell>
        <mxCell id="UgCB9UPbPLm7X-WozdRs-108" value="&lt;div&gt;Falco&lt;/div&gt;" style="text;html=1;strokeColor=none;fillColor=none;align=center;verticalAlign=middle;whiteSpace=wrap;rounded=0;fontColor=#000000;" vertex="1" parent="1">
          <mxGeometry x="530" y="490" width="60" height="30" as="geometry" />
        </mxCell>
        <mxCell id="UgCB9UPbPLm7X-WozdRs-110" value="&lt;div&gt;Monitoring&lt;/div&gt;" style="rounded=0;whiteSpace=wrap;html=1;fontColor=#000000;fillColor=#FFFFFF;" vertex="1" parent="1">
          <mxGeometry x="1230" y="570" width="210" height="190" as="geometry" />
        </mxCell>
        <mxCell id="UgCB9UPbPLm7X-WozdRs-118" value="" style="shape=image;verticalLabelPosition=bottom;labelBackgroundColor=#ffffff;verticalAlign=top;aspect=fixed;imageAspect=0;image=https://landscape.cncf.io/logos/prometheus.svg;" vertex="1" parent="1">
          <mxGeometry x="1244.25" y="580" width="73.5" height="73.5" as="geometry" />
        </mxCell>
        <mxCell id="UgCB9UPbPLm7X-WozdRs-119" value="" style="endArrow=classic;html=1;rounded=0;fontColor=#000000;exitX=0;exitY=0.5;exitDx=0;exitDy=0;entryX=1;entryY=0.5;entryDx=0;entryDy=0;" edge="1" parent="1" source="UgCB9UPbPLm7X-WozdRs-118" target="UgCB9UPbPLm7X-WozdRs-52">
          <mxGeometry width="50" height="50" relative="1" as="geometry">
            <mxPoint x="1190" y="490" as="sourcePoint" />
            <mxPoint x="1240" y="440" as="targetPoint" />
          </mxGeometry>
        </mxCell>
        <mxCell id="UgCB9UPbPLm7X-WozdRs-120" value="&lt;div&gt;Service monitor&lt;/div&gt;&lt;div&gt;&lt;br&gt;&lt;/div&gt;" style="ellipse;whiteSpace=wrap;html=1;fontColor=#000000;fillColor=#FFFFFF;" vertex="1" parent="1">
          <mxGeometry x="1266" y="405.5" width="30" height="25" as="geometry" />
        </mxCell>
        <mxCell id="UgCB9UPbPLm7X-WozdRs-121" value="&lt;div&gt;Service monitor&lt;/div&gt;&lt;div&gt;&lt;br&gt;&lt;/div&gt;" style="ellipse;whiteSpace=wrap;html=1;fontColor=#000000;fillColor=#FFFFFF;" vertex="1" parent="1">
          <mxGeometry x="1500.5" y="411.5" width="30" height="25" as="geometry" />
        </mxCell>
        <mxCell id="UgCB9UPbPLm7X-WozdRs-122" value="" style="endArrow=classic;html=1;rounded=0;fontColor=#000000;entryX=0.5;entryY=0;entryDx=0;entryDy=0;" edge="1" parent="1" source="UgCB9UPbPLm7X-WozdRs-120" target="UgCB9UPbPLm7X-WozdRs-118">
          <mxGeometry width="50" height="50" relative="1" as="geometry">
            <mxPoint x="1180" y="540" as="sourcePoint" />
            <mxPoint x="1230" y="490" as="targetPoint" />
          </mxGeometry>
        </mxCell>
        <mxCell id="UgCB9UPbPLm7X-WozdRs-123" value="" style="endArrow=classic;html=1;rounded=0;fontColor=#000000;entryX=0.5;entryY=0;entryDx=0;entryDy=0;exitX=0.5;exitY=1;exitDx=0;exitDy=0;" edge="1" parent="1" source="UgCB9UPbPLm7X-WozdRs-121" target="UgCB9UPbPLm7X-WozdRs-118">
          <mxGeometry width="50" height="50" relative="1" as="geometry">
            <mxPoint x="1291" y="440.5" as="sourcePoint" />
            <mxPoint x="1291" y="589.9999999999998" as="targetPoint" />
          </mxGeometry>
        </mxCell>
        <mxCell id="UgCB9UPbPLm7X-WozdRs-124" value="" style="endArrow=classic;html=1;rounded=0;fontColor=#000000;entryX=0.5;entryY=0;entryDx=0;entryDy=0;exitX=0.5;exitY=1;exitDx=0;exitDy=0;exitPerimeter=0;" edge="1" parent="1" source="UgCB9UPbPLm7X-WozdRs-98" target="UgCB9UPbPLm7X-WozdRs-120">
          <mxGeometry width="50" height="50" relative="1" as="geometry">
            <mxPoint x="1301" y="450.5" as="sourcePoint" />
            <mxPoint x="1301" y="599.9999999999998" as="targetPoint" />
          </mxGeometry>
        </mxCell>
        <mxCell id="UgCB9UPbPLm7X-WozdRs-125" value="" style="endArrow=classic;html=1;rounded=0;fontColor=#000000;entryX=0.5;entryY=0;entryDx=0;entryDy=0;exitX=0.5;exitY=1;exitDx=0;exitDy=0;exitPerimeter=0;" edge="1" parent="1" source="UgCB9UPbPLm7X-WozdRs-99" target="UgCB9UPbPLm7X-WozdRs-121">
          <mxGeometry width="50" height="50" relative="1" as="geometry">
            <mxPoint x="1311" y="460.5" as="sourcePoint" />
            <mxPoint x="1311" y="609.9999999999998" as="targetPoint" />
          </mxGeometry>
        </mxCell>
      </root>
    </mxGraphModel>
  </diagram>
</mxfile>
